<svg xmlns="http://www.w3.org/2000/svg" width="78.997" height="65"><defs><style>.a{fill:#fff}</style></defs><path d="M76.683 65.001H2.315A2.247 2.247 0 0 1 0 62.834V21.667h79v41.167a2.247 2.247 0 0 1-2.317 2.167Zm-23.3-28.166a2.377 2.377 0 0 0-1.636.635 2.068 2.068 0 0 0 0 3.063l7.621 7.134-7.621 7.136a2.067 2.067 0 0 0 0 3.063 2.425 2.425 0 0 0 3.272 0l9.257-8.666a2.069 2.069 0 0 0 0-3.064l-9.257-8.666a2.377 2.377 0 0 0-1.634-.636Zm-9.252 0a2.339 2.339 0 0 0-2.076 1.2l-9.257 17.333a2.032 2.032 0 0 0-.14 1.614 2.195 2.195 0 0 0 1.175 1.294 2.439 2.439 0 0 0 1.033.229 2.329 2.329 0 0 0 2.073-1.2l9.257-17.334a2.029 2.029 0 0 0 .14-1.614 2.191 2.191 0 0 0-1.175-1.294 2.449 2.449 0 0 0-1.028-.227Zm-18.521 0a2.38 2.38 0 0 0-1.636.635l-9.257 8.666a2.071 2.071 0 0 0 0 3.064l9.257 8.666a2.426 2.426 0 0 0 3.273 0 2.069 2.069 0 0 0 0-3.063l-7.621-7.136 7.621-7.134a2.07 2.07 0 0 0 0-3.063 2.381 2.381 0 0 0-1.635-.636Zm-13.885-8.667a2.171 2.171 0 1 0 0 4.333h55.544a2.171 2.171 0 1 0 0-4.333Zm67.274-10.834h-79V2.167A2.247 2.247 0 0 1 2.314 0h74.368a2.247 2.247 0 0 1 2.315 2.167v15.166ZM67.269 6.501a2.174 2.174 0 1 0 2.31 2.17 2.245 2.245 0 0 0-2.31-2.17Zm-9.259 0a2.174 2.174 0 1 0 2.309 2.17 2.246 2.246 0 0 0-2.31-2.17Zm-9.25 0a2.174 2.174 0 1 0 2.309 2.17 2.246 2.246 0 0 0-2.31-2.17Zm-37.032 0a2.171 2.171 0 1 0 0 4.333h23.144a2.171 2.171 0 1 0 0-4.333Z"/></svg>