<svg xmlns="http://www.w3.org/2000/svg" width="72.977" height="64.991"><defs><style>.a{fill:#fff}</style></defs><path d="M72.978 64.991H0V18.376h42.336L57.569.001h15.408v64.99ZM46.096 46.322l3.489 6.324h4.891l-5.935-10.758 5.935-10.758h-4.887l-3.49 6.325-3.49-6.325h-4.891l5.936 10.758-5.936 10.758h4.891l3.489-6.324ZM17.617 31.204v13.411a7.911 7.911 0 1 0 15.821 0V31.204h-4.276v13.411a3.635 3.635 0 1 1-7.269 0V31.204Zm22.718-17.132H0V0h52L40.334 14.072ZM27.269 4.801v4.331h4.28V4.801Zm-9.19 0v4.331h4.28V4.801Zm-9.19 0v4.331h4.28V4.801Z"/></svg>