<svg xmlns="http://www.w3.org/2000/svg" width="64.99" height="64.99"><defs><style>.a{fill:#fff}</style></defs><path d="M45.941 64.989H12.325v-1.12a3.365 3.365 0 0 1 3.362-3.362h26.892a3.366 3.366 0 0 1 3.362 3.362v1.119Zm-8.277-6.724H20.603l1.494-4.482H36.17l1.494 4.481Zm18.362-6.722H2.241A2.244 2.244 0 0 1 0 49.301V8.963a2.244 2.244 0 0 1 2.241-2.241h24.654v4.482H6.726a2.244 2.244 0 0 0-2.241 2.241v29.133a2.244 2.244 0 0 0 2.241 2.241h44.82a2.244 2.244 0 0 0 2.242-2.241v-8.963h4.482v15.686a2.244 2.244 0 0 1-2.244 2.243Zm-11.2-4.479v2.24h2.24v-2.24Zm-4.489 0v2.24h2.239v-2.24Zm-4.48 0v2.24h2.24v-2.24Zm15.688-4.486H6.725V13.445h20.17v16.807a3.366 3.366 0 0 0 3.362 3.362h21.289v8.962Zm-4.478-4.484v2.24h2.24v-2.24Zm-38.1 0v2.24h35.86v-2.24Zm2.24-11.2v6.724h13.446V22.412h-4.482V15.69H8.966v11.2Zm52.664 4.482H30.255a1.122 1.122 0 0 1-1.121-1.121v-5.6h35.857v5.6a1.122 1.122 0 0 1-1.122 1.119Zm-30.254-4.479v2.24h26.89v-2.24Zm-11.2 4.479h-8.964v-4.481h6.723v-2.241h2.241v6.722Zm-4.485-6.729h-6.72v-6.72h6.72v6.719Zm47.065-2.236H29.14V1.121a1.122 1.122 0 0 1 1.121-1.12h33.616a1.122 1.122 0 0 1 1.12 1.12V22.41ZM40.345 2.671v17.072l17.073-8.537-17.073-8.535Z"/></svg>